<svg width="420" height="330" viewBox="0 0 420 330" xmlns="http://www.w3.org/2000/svg" font-family="Tahoma, Segoe UI, sans-serif">
  <defs>
    <clipPath id="win"><rect x="30" y="20" width="360" height="290" rx="14"/></clipPath>
  </defs>

  <rect x="30" y="20" width="360" height="290" rx="14" fill="#131418" stroke="#3c4043" stroke-width="1"/>

  <g clip-path="url(#win)">
    <rect x="30" y="20" width="360" height="30" fill="#1f2023"/>
    <text x="48" y="40" font-size="12" fill="#bdc1c6">meet.example.com</text>
    <circle cx="372" cy="35" r="1.6" fill="#9aa0a6"/>
    <circle cx="366" cy="35" r="1.6" fill="#9aa0a6"/>
    <circle cx="360" cy="35" r="1.6" fill="#9aa0a6"/>
  </g>

  <g>
    <rect x="44" y="60" width="332" height="34" rx="10" fill="#202124" stroke="#3a3b3e" stroke-width="1"/>
    <text x="362" y="81" font-size="12" fill="#e8eaed" text-anchor="end">
      <tspan fill="#8ab4f8" font-weight="bold">علیرضا:</tspan>
      <tspan> سلام، صدام میاد؟</tspan>
    </text>
  </g>

  <g>
    <circle cx="62" cy="122" r="4" fill="#34a853"/>
    <text x="76" y="127" font-size="12" fill="#bdc1c6">Chapter Meeting — BigBlueButton</text>
  </g>

  <g font-size="16" text-anchor="middle">
    <text x="92"  y="166">✋</text>
    <text x="130" y="166">👍</text>
    <text x="168" y="166">👎</text>
    <text x="206" y="166">👏</text>
    <text x="244" y="166">😄</text>
    <text x="282" y="166">😮</text>
    <text x="320" y="166">❤️</text>
  </g>

  <g>
    <circle cx="110" cy="222" r="25" fill="#303134"/>
    <g transform="translate(99,211) scale(0.92)" fill="#e8eaed">
      <path d="M12 3a9 9 0 0 0-9 9v7c0 1.1.9 2 2 2h3v-8H5v-1a7 7 0 0 1 14 0v1h-3v8h3c1.1 0 2-.9 2-2v-7a9 9 0 0 0-9-9z"/>
    </g>
    <text x="110" y="266" font-size="10.5" fill="#9aa0a6" text-anchor="middle">صدا</text>

    <circle cx="176" cy="222" r="25" fill="#303134"/>
    <g transform="translate(165,211) scale(0.92)" fill="#e8eaed">
      <path d="M20 4H4c-1.1 0-2 .9-2 2v12c0 1.1.9 2 2 2h16c1.1 0 2-.9 2-2V6c0-1.1-.9-2-2-2zm0 14H4V6h16v12zM12 8l-4 4h3v4h2v-4h3l-4-4z"/>
    </g>
    <text x="176" y="266" font-size="10.5" fill="#9aa0a6" text-anchor="middle">اشتراک صفحه</text>

    <circle cx="242" cy="222" r="25" fill="#ea4335"/>
    <g transform="translate(231,211) scale(0.92)" fill="#ffffff">
      <path d="M21 6.5l-4 4V7a1 1 0 0 0-1-1H9.82L21 17.18V6.5zM3.27 2 2 3.27 4.73 6H4a1 1 0 0 0-1 1v10a1 1 0 0 0 1 1h12c.21 0 .39-.08.54-.18L19.73 21 21 19.73 3.27 2z"/>
    </g>
    <text x="242" y="266" font-size="10.5" fill="#9aa0a6" text-anchor="middle">خاموش</text>

    <circle cx="308" cy="222" r="25" fill="#ea4335"/>
    <g transform="translate(297,211) scale(0.92)" fill="#ffffff">
      <path d="M19 11h-1.7c0 .74-.16 1.43-.43 2.05l1.23 1.23c.56-.98.9-2.09.9-3.28zm-4.02.17c0-.06.02-.11.02-.17V5a3 3 0 0 0-6 0v.18l5.98 5.99zM4.27 3 3 4.27l6.01 6.01V11a3 3 0 0 0 3 3c.23 0 .44-.03.65-.08l1.66 1.66c-.71.33-1.5.52-2.31.52-2.76 0-5.3-2.1-5.3-5.1H5c0 3.41 2.72 6.23 6 6.72V21h2v-3.28c.91-.13 1.77-.45 2.54-.9L19.73 21 21 19.73 4.27 3z"/>
    </g>
    <text x="308" y="266" font-size="10.5" fill="#9aa0a6" text-anchor="middle">بی‌صدا</text>
  </g>
</svg>
